<mxfile host="app.diagrams.net" modified="2020-05-08T11:40:26.193Z" agent="5.0 (Macintosh; Intel Mac OS X 10_15_4) AppleWebKit/537.36 (KHTML, like Gecko) Chrome/81.0.4044.129 Safari/537.36" etag="5hrP1NTRaB16PKXEPF-h" version="13.0.9" type="github" pages="2">
  <diagram id="zlHrD9OhZK6BNU6T3SgI" name="逻辑部署图">
    <mxGraphModel dx="946" dy="565" grid="1" gridSize="10" guides="1" tooltips="1" connect="1" arrows="1" fold="1" page="1" pageScale="1" pageWidth="850" pageHeight="1100" math="0" shadow="0">
      <root>
        <mxCell id="0" />
        <mxCell id="1" parent="0" />
        <mxCell id="tjUaazPxL2GS5TyYTFiV-2" style="edgeStyle=orthogonalEdgeStyle;rounded=0;orthogonalLoop=1;jettySize=auto;html=1;entryX=0.5;entryY=0;entryDx=0;entryDy=0;shape=flexArrow;" parent="1" source="l-2U5ubfRvfDaSfbihJd-4" target="gYmHAJVz2tm_GoX4Bj-p-1" edge="1">
          <mxGeometry relative="1" as="geometry" />
        </mxCell>
        <mxCell id="gYmHAJVz2tm_GoX4Bj-p-2" value="" style="rounded=0;whiteSpace=wrap;html=1;shadow=0;strokeColor=#6c8ebf;fillColor=#dae8fc;" parent="1" vertex="1">
          <mxGeometry x="416" y="90" width="380" height="310" as="geometry" />
        </mxCell>
        <mxCell id="tjUaazPxL2GS5TyYTFiV-1" value="业务服务" style="text;html=1;strokeColor=none;fillColor=none;align=center;verticalAlign=middle;whiteSpace=wrap;rounded=0;" parent="1" vertex="1">
          <mxGeometry x="430" y="104" width="64" height="20" as="geometry" />
        </mxCell>
        <mxCell id="tjUaazPxL2GS5TyYTFiV-5" value="" style="rounded=0;whiteSpace=wrap;html=1;shadow=0;fillColor=#dae8fc;strokeColor=#6c8ebf;gradientColor=none;" parent="1" vertex="1">
          <mxGeometry x="56" y="520" width="310" height="110" as="geometry" />
        </mxCell>
        <mxCell id="tjUaazPxL2GS5TyYTFiV-14" value="" style="group" parent="1" vertex="1" connectable="0">
          <mxGeometry x="56" y="90" width="310" height="120" as="geometry" />
        </mxCell>
        <mxCell id="l-2U5ubfRvfDaSfbihJd-4" value="" style="rounded=0;whiteSpace=wrap;html=1;shadow=0;fillColor=#dae8fc;strokeColor=#6c8ebf;gradientColor=none;" parent="tjUaazPxL2GS5TyYTFiV-14" vertex="1">
          <mxGeometry width="310" height="120" as="geometry" />
        </mxCell>
        <mxCell id="l-2U5ubfRvfDaSfbihJd-6" value="通用组件服务" style="text;html=1;strokeColor=none;fillColor=none;align=center;verticalAlign=middle;whiteSpace=wrap;rounded=0;" parent="tjUaazPxL2GS5TyYTFiV-14" vertex="1">
          <mxGeometry x="10" y="10" width="90" height="20" as="geometry" />
        </mxCell>
        <mxCell id="gYmHAJVz2tm_GoX4Bj-p-7" value="基础镜像（Harbor)" style="rounded=0;whiteSpace=wrap;html=1;shadow=0;strokeColor=#d79b00;fillColor=#ffe6cc;" parent="tjUaazPxL2GS5TyYTFiV-14" vertex="1">
          <mxGeometry x="25" y="52" width="120" height="40" as="geometry" />
        </mxCell>
        <mxCell id="gYmHAJVz2tm_GoX4Bj-p-8" value="基础组件（Nexus)" style="rounded=0;whiteSpace=wrap;html=1;shadow=0;strokeColor=#d79b00;fillColor=#ffe6cc;" parent="tjUaazPxL2GS5TyYTFiV-14" vertex="1">
          <mxGeometry x="165" y="52" width="120" height="40" as="geometry" />
        </mxCell>
        <mxCell id="tjUaazPxL2GS5TyYTFiV-17" value="" style="rounded=0;whiteSpace=wrap;html=1;shadow=0;strokeColor=#6c8ebf;fillColor=#dae8fc;" parent="1" vertex="1">
          <mxGeometry x="416" y="420" width="380" height="210" as="geometry" />
        </mxCell>
        <mxCell id="tjUaazPxL2GS5TyYTFiV-18" value="华润通用技术组件服务" style="text;html=1;strokeColor=none;fillColor=none;align=center;verticalAlign=middle;whiteSpace=wrap;rounded=0;" parent="1" vertex="1">
          <mxGeometry x="425" y="433" width="145" height="20" as="geometry" />
        </mxCell>
        <mxCell id="tjUaazPxL2GS5TyYTFiV-19" value="数据库" style="rounded=0;whiteSpace=wrap;html=1;shadow=0;strokeColor=#d79b00;fillColor=#ffe6cc;" parent="1" vertex="1">
          <mxGeometry x="450" y="470" width="80" height="40" as="geometry" />
        </mxCell>
        <mxCell id="tjUaazPxL2GS5TyYTFiV-20" value="数据库" style="rounded=0;whiteSpace=wrap;html=1;shadow=0;strokeColor=#d79b00;fillColor=#ffe6cc;" parent="1" vertex="1">
          <mxGeometry x="570" y="470" width="80" height="40" as="geometry" />
        </mxCell>
        <mxCell id="tjUaazPxL2GS5TyYTFiV-21" value="数据库" style="rounded=0;whiteSpace=wrap;html=1;shadow=0;strokeColor=#d79b00;fillColor=#ffe6cc;" parent="1" vertex="1">
          <mxGeometry x="690" y="470" width="80" height="40" as="geometry" />
        </mxCell>
        <mxCell id="tjUaazPxL2GS5TyYTFiV-22" value="" style="group" parent="1" vertex="1" connectable="0">
          <mxGeometry x="56" y="240" width="310" height="250" as="geometry" />
        </mxCell>
        <mxCell id="gYmHAJVz2tm_GoX4Bj-p-1" value="" style="rounded=0;whiteSpace=wrap;html=1;shadow=0;strokeColor=#6c8ebf;fillColor=#dae8fc;" parent="tjUaazPxL2GS5TyYTFiV-22" vertex="1">
          <mxGeometry width="310" height="250" as="geometry" />
        </mxCell>
        <mxCell id="gYmHAJVz2tm_GoX4Bj-p-9" value="通用技术服务" style="text;html=1;strokeColor=none;fillColor=none;align=center;verticalAlign=middle;whiteSpace=wrap;rounded=0;" parent="tjUaazPxL2GS5TyYTFiV-22" vertex="1">
          <mxGeometry x="10" y="20" width="90" height="20" as="geometry" />
        </mxCell>
        <mxCell id="tjUaazPxL2GS5TyYTFiV-6" value="用户中心" style="rounded=0;whiteSpace=wrap;html=1;shadow=0;strokeColor=#d79b00;fillColor=#ffe6cc;" parent="tjUaazPxL2GS5TyYTFiV-22" vertex="1">
          <mxGeometry x="16" y="61" width="80" height="40" as="geometry" />
        </mxCell>
        <mxCell id="tjUaazPxL2GS5TyYTFiV-7" value="权限中心" style="rounded=0;whiteSpace=wrap;html=1;shadow=0;strokeColor=#d79b00;fillColor=#ffe6cc;" parent="tjUaazPxL2GS5TyYTFiV-22" vertex="1">
          <mxGeometry x="115" y="60" width="80" height="40" as="geometry" />
        </mxCell>
        <mxCell id="tjUaazPxL2GS5TyYTFiV-8" value="网关服务" style="rounded=0;whiteSpace=wrap;html=1;shadow=0;strokeColor=#d79b00;fillColor=#ffe6cc;" parent="tjUaazPxL2GS5TyYTFiV-22" vertex="1">
          <mxGeometry x="214" y="60" width="80" height="40" as="geometry" />
        </mxCell>
        <mxCell id="tjUaazPxL2GS5TyYTFiV-9" value="注册中心" style="rounded=0;whiteSpace=wrap;html=1;shadow=0;strokeColor=#d79b00;fillColor=#ffe6cc;" parent="tjUaazPxL2GS5TyYTFiV-22" vertex="1">
          <mxGeometry x="15" y="115" width="80" height="40" as="geometry" />
        </mxCell>
        <mxCell id="tjUaazPxL2GS5TyYTFiV-10" value="配置中心&lt;br&gt;Apollo" style="rounded=0;whiteSpace=wrap;html=1;shadow=0;strokeColor=#d79b00;fillColor=#ffe6cc;" parent="tjUaazPxL2GS5TyYTFiV-22" vertex="1">
          <mxGeometry x="115" y="115" width="80" height="40" as="geometry" />
        </mxCell>
        <mxCell id="tjUaazPxL2GS5TyYTFiV-12" value="日志服务&lt;br&gt;ELK" style="rounded=0;whiteSpace=wrap;html=1;shadow=0;strokeColor=#d79b00;fillColor=#ffe6cc;" parent="tjUaazPxL2GS5TyYTFiV-22" vertex="1">
          <mxGeometry x="214" y="115" width="80" height="40" as="geometry" />
        </mxCell>
        <mxCell id="tjUaazPxL2GS5TyYTFiV-13" value="任务调度&lt;br&gt;Elastic-JOB" style="rounded=0;whiteSpace=wrap;html=1;shadow=0;strokeColor=#d79b00;fillColor=#ffe6cc;" parent="tjUaazPxL2GS5TyYTFiV-22" vertex="1">
          <mxGeometry x="15" y="177" width="80" height="40" as="geometry" />
        </mxCell>
        <mxCell id="tjUaazPxL2GS5TyYTFiV-16" value="服务治理" style="rounded=0;whiteSpace=wrap;html=1;shadow=0;strokeColor=#d79b00;fillColor=#ffe6cc;" parent="tjUaazPxL2GS5TyYTFiV-22" vertex="1">
          <mxGeometry x="115" y="177" width="80" height="40" as="geometry" />
        </mxCell>
      </root>
    </mxGraphModel>
  </diagram>
  <diagram id="QrqpH9jdRucEbJiVIOKm" name="物理部署图">
    <mxGraphModel dx="946" dy="614" grid="1" gridSize="10" guides="1" tooltips="1" connect="1" arrows="1" fold="1" page="1" pageScale="1" pageWidth="850" pageHeight="1100" math="0" shadow="0">
      <root>
        <mxCell id="NHJ_zs1IeuzqeUoQuBm5-0" />
        <mxCell id="NHJ_zs1IeuzqeUoQuBm5-1" parent="NHJ_zs1IeuzqeUoQuBm5-0" />
      </root>
    </mxGraphModel>
  </diagram>
</mxfile>
